<?xml version="1.0" encoding="utf-8"?>
<!-- Generator: Adobe Illustrator 26.0.3, SVG Export Plug-In . SVG Version: 6.00 Build 0)  -->
<svg version="1.1" id="Camada_1" xmlns="http://www.w3.org/2000/svg" xmlns:xlink="http://www.w3.org/1999/xlink" x="0px" y="0px"
	 viewBox="0 0 500 500" style="enable-background:new 0 0 500 500;" xml:space="preserve">
<style type="text/css">
	.st0{fill:#402418;}
	.st1{fill:#3E1C12;}
</style>
<path class="st0" d="M279.6,191.6c20-8.2,38.6-17.5,61.1-17.3c24.3,0.8,42.7-5.4,69.7-23.3c49.1-32.7,73.6-67.4,69-97.9
	C462.7-9.1,401.1,9,357.7,26.2c-25.3,7.2-119.2,71.4-126.2,102.9C247.9,150,264,170.5,279.6,191.6L279.6,191.6z M256.5,209.3
	c-17.7-19-31.4-36.7-52.8-61.3C66.1,220.9,179.7,327.3,256.5,209.3z"/>
<path class="st1" d="M144.8,350.9c19.6-9,39.1-16.2,54.3-32.8c16-18.3,33.1-27.5,64.7-34.9c57.5-13.5,99.5-7.6,118.6,16.6
	c34,54.6-21.3,87.2-63.5,107.2c-22.5,13.6-133.6,38.2-161.4,21.7C153.4,402.4,149.4,376.7,144.8,350.9L144.8,350.9z M116.1,355.6
	c1.8,25.9,5.3,48,8.6,80.5C-22.6,486.6-22.6,331,116.1,355.6L116.1,355.6z"/>
</svg>
